<?xml version="1.0" encoding="utf-8"?>
<!-- Generator: Adobe Illustrator 15.0.0, SVG Export Plug-In . SVG Version: 6.00 Build 0)  -->
<!DOCTYPE svg PUBLIC "-//W3C//DTD SVG 1.1//EN" "http://www.w3.org/Graphics/SVG/1.1/DTD/svg11.dtd">
<svg version="1.1" id="Layer_1" xmlns="http://www.w3.org/2000/svg" xmlns:xlink="http://www.w3.org/1999/xlink" x="0px" y="0px"
	 width="800px" height="800px" viewBox="0 0 800 800" enable-background="new 0 0 800 800" xml:space="preserve">
<g>
	<path fill="#ED238E" d="M730.929,278.577c17.171,49.03,19.363,95.662,19.049,119.724c-0.336,25.555-4.763,69.42-19.988,111.273
		c-9.406,25.86-20.712,49.223-30.518,64.59c-9.457,14.823-12.438,19.263-15.778,24.071c-3.823,5.499-1.191,11.478,2.196,14.294
		c4.452,3.702,12.66,1.585,15.226-1.953c5.634-7.771,14.99-20.516,30.686-50.967c15.226-29.541,35.33-79.062,39.17-147.492
		c3.756-66.938-12.207-123.346-28.841-164.461c-16.165-37.762-35.573-65.427-43.731-76.529c-5.156-6.808-20.097-26.995-47.42-52.518
		c-18.311-17.104-42.18-34.916-67.072-48.896C492.508,18.38,378.065-0.958,264.678,63.719
		c-113.388,64.674-120.344,153.912-112.977,235.78c7.37,81.866,50.348,149.198,61.4,171.307
		c-13.001,18.228-25.787,39.908-24.559,77.972c1.228,38.072,22.693,64.432,63.855,63.241c42.672-1.225,65.699-34.375,57.104-97.313
		c-8.309-60.835-47.892-97.322-78.592-175.3c-30.701-77.974-23.459-137.599-22.105-147.97c1.679-12.87,3.685-71.836,83.505-117.888
		c47.126-27.189,105.605-34.821,169.056-26.102c39.841,7.244,74.911,20.75,100.541,34.676c17.439,8.518,35.079,20.725,49.5,31.591
		c19.702,14.846,41.316,34.609,64.657,63.719C702.474,210.371,718.449,242.947,730.929,278.577z M251.496,545.919
		c3.666,28.346-2.167,42.154-20.468,40.931c-19.759-1.333-24.873-23.651-25.38-37.653c-0.526-14.537-0.815-36.025,18.833-65.496
		C224.48,483.7,247.815,517.455,251.496,545.919z"/>
	<path fill="#ED238E" d="M489.561,518c-8.305-60.835-79.351-174.866-79.351-174.866c-5.266-9.891-9.956-19.155-15.502-30.956
		c12.999-18.231,30.388-42.465,29.155-80.533c-1.224-38.068-22.699-64.425-63.855-63.241c-42.675,1.228-65.699,34.383-57.104,97.317
		c8.309,60.835,79.349,174.868,79.349,174.868c5.27,9.894,9.964,19.157,15.506,30.954c-13,18.235-30.38,42.474-29.151,80.537
		c1.228,38.071,22.695,64.423,63.853,63.24C475.132,614.098,498.158,580.938,489.561,518z M381.373,193.577
		c19.766,1.329,24.88,23.654,25.387,37.655c0.528,14.536,0.817,36.02-18.834,65.496c0,0-23.343-33.754-27.018-62.218
		C357.244,206.164,363.077,192.349,381.373,193.577z M411.099,590.152c-19.765-1.333-24.875-23.659-25.387-37.661
		c-0.528-14.529-0.813-36.018,18.83-65.496c0,0,23.342,33.755,27.014,62.219C435.224,577.56,429.393,591.377,411.099,590.152z"/>
	<path fill="#ED238E" d="M580.431,310.373c0,0-131.562,121.363-175.889,176.622c-0.528-6.548-6.782-15.451-6.782-15.451
		s98.517-109.395,171.299-174.067C571.024,306.485,580.431,310.373,580.431,310.373z"/>
	<path fill="#ED238E" d="M213.556,472.055c0,0,131.564-121.363,175.895-176.622c0.528,6.546,6.783,15.45,6.783,15.45
		S297.713,420.275,224.933,484.95C222.967,475.937,213.556,472.055,213.556,472.055z"/>
	<path fill="#ED238E" d="M65.748,504.263c-17.17-49.03-19.363-95.662-19.048-119.724c0.335-25.555,4.762-69.42,19.987-111.273
		c9.407-25.861,20.713-49.223,30.518-64.591c9.457-14.823,12.438-19.262,15.779-24.07c3.823-5.5,1.19-11.478-2.197-14.295
		c-4.452-3.702-12.66-1.584-15.226,1.954c-5.634,7.772-14.99,20.516-30.686,50.966c-15.225,29.541-35.33,79.062-39.17,147.492
		c-3.756,66.938,12.207,123.346,28.841,164.461c16.165,37.762,35.574,65.429,43.731,76.529c5.156,6.809,20.096,26.997,47.42,52.518
		c18.311,17.104,42.18,34.916,67.072,48.896c91.398,51.335,205.84,70.673,319.231,5.994
		c113.386-64.675,120.344-153.914,112.975-235.78c-7.37-81.865-50.347-149.198-61.4-171.307
		c12.999-18.227,25.785-39.908,24.561-77.972c-1.232-38.072-22.695-64.431-63.856-63.241c-42.671,1.224-65.702,34.375-57.104,97.313
		c8.309,60.834,47.894,97.322,78.592,175.302c30.698,77.972,23.458,137.599,22.104,147.97
		c-1.677,12.869-3.685,71.834-83.505,117.888c-47.127,27.189-105.605,34.819-169.056,26.1
		c-39.841-7.244-74.911-20.751-100.542-34.677c-17.438-8.518-35.079-20.725-49.499-31.591
		c-19.703-14.844-41.316-34.609-64.658-63.719C94.203,572.471,78.227,539.895,65.748,504.263z M545.181,236.921
		c-3.664-28.347,2.167-42.155,20.465-40.931c19.762,1.333,24.876,23.651,25.383,37.653c0.524,14.538,0.817,36.026-18.835,65.496
		C572.193,299.139,548.861,265.384,545.181,236.921z"/>
</g>
</svg>
