<?xml version="1.0" encoding="utf-8"?>
<!-- Generator: Adobe Illustrator 15.0.0, SVG Export Plug-In . SVG Version: 6.00 Build 0)  -->
<!DOCTYPE svg PUBLIC "-//W3C//DTD SVG 1.1//EN" "http://www.w3.org/Graphics/SVG/1.1/DTD/svg11.dtd">
<svg version="1.1" id="Layer_1" xmlns="http://www.w3.org/2000/svg" xmlns:xlink="http://www.w3.org/1999/xlink" x="0px" y="0px"
	 width="200px" height="200px" viewBox="0 0 200 200" enable-background="new 0 0 200 200" xml:space="preserve">
<g>
	<path fill="#EF26C4" d="M186.781,68.331c4.52,13.093,5.098,25.547,5.014,31.973c-0.088,6.824-1.254,18.537-5.262,29.714
		c-2.477,6.906-5.451,13.146-8.033,17.25c-2.488,3.957-3.273,5.143-4.152,6.428c-1.006,1.467-0.314,3.064,0.578,3.816
		c1.172,0.988,3.332,0.424,4.006-0.521c1.484-2.074,3.947-5.479,8.078-13.609c4.01-7.889,9.301-21.113,10.312-39.389
		c0.986-17.875-3.215-32.939-7.592-43.919c-4.256-10.084-9.365-17.472-11.512-20.437c-1.357-1.818-5.291-7.209-12.482-14.025
		c-4.82-4.567-11.104-9.324-17.654-13.058c-24.061-13.708-54.185-18.872-84.032-1.6C34.203,28.225,32.372,52.055,34.312,73.918
		c1.94,21.862,13.253,39.844,16.162,45.748c-3.422,4.865-6.788,10.656-6.464,20.82c0.323,10.168,5.973,17.207,16.808,16.889
		c11.232-0.326,17.294-9.18,15.031-25.986c-2.187-16.246-12.606-25.99-20.688-46.814c-8.081-20.823-6.174-36.745-5.818-39.515
		c0.442-3.437,0.97-19.184,21.981-31.481c12.405-7.261,27.799-9.299,44.5-6.971c10.488,1.935,19.719,5.541,26.465,9.26
		c4.59,2.275,9.234,5.535,13.029,8.437c5.188,3.965,10.875,9.242,17.02,17.016C179.291,50.117,183.496,58.815,186.781,68.331z
		 M60.581,139.725c0.965,7.568-0.57,11.256-5.388,10.93c-5.201-0.355-6.547-6.316-6.68-10.055c-0.139-3.883-0.215-9.621,4.957-17.49
		C53.469,123.109,59.612,132.123,60.581,139.725z"/>
	<path fill="#EF26C4" d="M123.246,132.27c-2.186-16.246-20.887-46.699-20.887-46.699c-1.387-2.642-2.622-5.116-4.081-8.267
		c3.421-4.869,7.999-11.341,7.675-21.507c-0.322-10.166-5.975-17.204-16.809-16.888c-11.233,0.328-17.294,9.182-15.031,25.988
		C76.3,81.144,95,111.596,95,111.596c1.387,2.643,2.623,5.117,4.082,8.268c-3.422,4.869-7.997,11.342-7.674,21.506
		c0.324,10.168,5.975,17.205,16.807,16.889C119.447,157.932,125.51,149.076,123.246,132.27z M94.769,45.632
		c5.203,0.354,6.548,6.316,6.683,10.055c0.139,3.882,0.215,9.619-4.958,17.49c0,0-6.145-9.013-7.111-16.615
		C88.417,48.994,89.952,45.303,94.769,45.632z M102.594,151.537c-5.204-0.355-6.549-6.318-6.683-10.059
		c-0.14-3.879-0.214-9.617,4.956-17.49c0,0,6.145,9.014,7.112,16.615C108.943,148.174,107.408,151.863,102.594,151.537z"/>
	<path fill="#EF26C4" d="M147.166,76.822c0,0-34.631,32.411-46.299,47.167c-0.14-1.748-1.785-4.125-1.785-4.125
		s25.932-29.215,45.09-46.486C144.689,75.783,147.166,76.822,147.166,76.822z"/>
	<path fill="#EF26C4" d="M50.594,120c0,0,34.632-32.411,46.301-47.168c0.139,1.748,1.786,4.125,1.786,4.125
		s-25.934,29.213-45.092,46.484C53.071,121.035,50.594,120,50.594,120z"/>
	<path fill="#EF26C4" d="M11.687,128.6c-4.52-13.094-5.097-25.545-5.014-31.972c0.088-6.824,1.253-18.539,5.261-29.715
		c2.477-6.906,5.452-13.145,8.033-17.249c2.489-3.958,3.274-5.145,4.154-6.429c1.006-1.468,0.313-3.064-0.579-3.816
		c-1.172-0.989-3.332-0.423-4.008,0.521c-1.483,2.075-3.946,5.479-8.077,13.61c-4.009,7.889-9.3,21.113-10.312,39.387
		c-0.989,17.875,3.213,32.939,7.592,43.92c4.255,10.084,9.364,17.473,11.512,20.438c1.357,1.816,5.29,7.209,12.482,14.023
		c4.82,4.566,11.104,9.324,17.656,13.057c24.059,13.711,54.183,18.873,84.031,1.602c29.846-17.271,31.68-41.102,29.738-62.965
		c-1.941-21.861-13.254-39.842-16.162-45.747c3.422-4.868,6.787-10.658,6.465-20.823c-0.326-10.167-5.975-17.206-16.811-16.888
		c-11.23,0.328-17.293,9.18-15.031,25.987c2.189,16.246,12.609,25.99,20.688,46.813c8.082,20.822,6.176,36.746,5.82,39.516
		c-0.441,3.438-0.971,19.184-21.98,31.482c-12.406,7.26-27.798,9.299-44.501,6.969c-10.487-1.934-19.718-5.541-26.465-9.26
		c-4.59-2.275-9.233-5.535-13.029-8.436c-5.187-3.965-10.876-9.244-17.02-17.018C19.177,146.814,14.971,138.115,11.687,128.6z
		 M137.887,57.207c-0.963-7.57,0.57-11.257,5.387-10.931c5.203,0.356,6.549,6.316,6.682,10.056c0.139,3.882,0.217,9.621-4.957,17.49
		C144.998,73.822,138.855,64.808,137.887,57.207z"/>
</g>
</svg>
