<?xml version="1.0" encoding="utf-8"?>
<!-- Generator: Adobe Illustrator 15.0.0, SVG Export Plug-In . SVG Version: 6.00 Build 0)  -->
<!DOCTYPE svg PUBLIC "-//W3C//DTD SVG 1.1//EN" "http://www.w3.org/Graphics/SVG/1.1/DTD/svg11.dtd">
<svg version="1.1" id="Layer_1" xmlns="http://www.w3.org/2000/svg" xmlns:xlink="http://www.w3.org/1999/xlink" x="0px" y="0px"
	 width="35px" height="35px" viewBox="0 0 35 35" enable-background="new 0 0 35 35" xml:space="preserve">
<g>
	<circle fill="#EF26C4" cx="89.873" cy="20.149" r="17.054"/>
	<g>
		<path fill="#FFFFFF" d="M89.865,14.042c-3.388,0-6.119,2.732-6.119,6.12c0,3.389,2.731,6.12,6.119,6.12
			c3.389,0,6.119-2.731,6.119-6.12C95.984,16.774,93.252,14.042,89.865,14.042z M89.865,24.14c-2.189,0-3.979-1.784-3.979-3.979
			c0-2.193,1.783-3.979,3.979-3.979s3.98,1.786,3.98,3.979C93.844,22.355,92.055,24.14,89.865,24.14z M97.662,13.791
			c0,0.794-0.639,1.428-1.426,1.428c-0.795,0-1.428-0.639-1.428-1.428c0-0.787,0.639-1.426,1.428-1.426
			C97.023,12.363,97.662,13.003,97.662,13.791z M101.715,15.241c-0.09-1.913-0.525-3.606-1.928-5.002
			c-1.395-1.395-3.09-1.832-5.002-1.928c-1.971-0.112-7.877-0.112-9.849,0c-1.905,0.09-3.601,0.527-5,1.923
			c-1.401,1.395-1.833,3.089-1.929,5c-0.111,1.971-0.111,7.877,0,9.85c0.091,1.91,0.527,3.604,1.929,5.002
			c1.399,1.395,3.089,1.832,5.001,1.929c1.973,0.11,7.879,0.11,9.85,0c1.91-0.091,3.604-0.527,5.002-1.929
			c1.396-1.396,1.832-3.09,1.928-5.002C101.826,23.112,101.826,17.21,101.715,15.241z M99.17,27.198
			c-0.416,1.045-1.223,1.849-2.27,2.271c-1.57,0.623-5.301,0.479-7.035,0.479c-1.736,0-5.471,0.139-7.037-0.479
			c-1.045-0.415-1.849-1.221-2.27-2.271c-0.624-1.571-0.479-5.299-0.479-7.036c0-1.736-0.14-5.47,0.479-7.036
			c0.416-1.045,1.22-1.848,2.27-2.269c1.571-0.623,5.297-0.479,7.039-0.479c1.732,0,5.469-0.14,7.035,0.479
			c1.043,0.415,1.848,1.219,2.27,2.268c0.621,1.572,0.479,5.3,0.479,7.035C99.65,21.899,99.793,25.633,99.17,27.198z"/>
	</g>
</g>
<path fill="#EF26C4" d="M33.666,17.264c0,9.021-7.308,16.406-16.325,16.406C8.308,33.67,1,26.284,1,17.264
	C1,8.229,8.308,0.925,17.341,0.925C26.361,0.925,33.666,8.23,33.666,17.264 M21.419,30.6c5.596-2.001,9.689-7.163,9.689-13.336
	c0-7.607-6.173-13.782-13.768-13.782c-7.609,0-13.783,6.175-13.783,13.782c0,6.235,4.159,11.433,9.85,13.336v-2.621
	c0-1.567,0.656-2.398,1.311-2.846c-3.549-0.37-7.355-1.65-7.355-7.79c0-1.721,0.608-3.131,1.616-4.219
	c-0.158-0.415-0.686-2.012,0.161-4.171c0,0,1.328-0.432,4.333,1.615c1.248-0.352,2.607-0.528,3.933-0.528
	c1.341,0,2.689,0.174,3.95,0.528c3.006-2.047,4.316-1.615,4.316-1.615c0.863,2.16,0.32,3.756,0.161,4.171
	c1.008,1.088,1.616,2.498,1.616,4.219c0,6.14-3.808,7.42-7.354,7.79c0.651,0.447,1.325,1.278,1.325,2.846V30.6L21.419,30.6z"/>
</svg>
