<?xml version="1.0" encoding="utf-8"?>
<!-- Generator: Adobe Illustrator 15.0.0, SVG Export Plug-In . SVG Version: 6.00 Build 0)  -->
<!DOCTYPE svg PUBLIC "-//W3C//DTD SVG 1.1//EN" "http://www.w3.org/Graphics/SVG/1.1/DTD/svg11.dtd">
<svg version="1.1" id="Layer_1" xmlns="http://www.w3.org/2000/svg" xmlns:xlink="http://www.w3.org/1999/xlink" x="0px" y="0px"
	 width="35px" height="35px" viewBox="0 0 35 35" enable-background="new 0 0 35 35" xml:space="preserve">
<g>
	<circle fill="#EF26C4" cx="17.499" cy="17.5" r="17.054"/>
	<g>
		<path fill="#FFFFFF" d="M17.491,11.394c-3.388,0-6.119,2.732-6.119,6.119c0,3.389,2.731,6.121,6.119,6.121
			c3.389,0,6.119-2.732,6.119-6.121C23.61,14.126,20.878,11.394,17.491,11.394z M17.491,21.491c-2.189,0-3.979-1.784-3.979-3.979
			c0-2.193,1.783-3.979,3.979-3.979c2.194,0,3.979,1.786,3.979,3.979C21.469,19.707,19.68,21.491,17.491,21.491z M25.288,11.142
			c0,0.794-0.64,1.428-1.426,1.428c-0.795,0-1.429-0.639-1.429-1.428c0-0.787,0.64-1.426,1.429-1.426
			C24.648,9.715,25.288,10.355,25.288,11.142z M29.341,12.593c-0.09-1.913-0.526-3.606-1.928-5.002
			c-1.396-1.395-3.09-1.832-5.002-1.928c-1.971-0.112-7.877-0.112-9.849,0C10.657,5.753,8.961,6.19,7.562,7.586
			c-1.401,1.395-1.833,3.089-1.929,5c-0.111,1.971-0.111,7.877,0,9.849c0.091,1.911,0.528,3.604,1.929,5.002
			c1.4,1.395,3.089,1.832,5.001,1.929c1.972,0.111,7.878,0.111,9.849,0c1.91-0.091,3.604-0.527,5.002-1.929
			c1.396-1.396,1.832-3.089,1.928-5.002C29.452,20.464,29.452,14.562,29.341,12.593z M26.796,24.55
			c-0.416,1.045-1.223,1.849-2.27,2.27c-1.57,0.623-5.302,0.479-7.035,0.479c-1.736,0-5.471,0.139-7.038-0.479
			c-1.045-0.415-1.848-1.221-2.269-2.27c-0.624-1.571-0.479-5.299-0.479-7.037c0-1.735-0.139-5.469,0.479-7.035
			C8.6,9.433,9.404,8.63,10.454,8.209c1.571-0.623,5.297-0.479,7.038-0.479c1.733,0,5.469-0.14,7.035,0.479
			c1.043,0.415,1.848,1.219,2.27,2.268c0.621,1.572,0.479,5.3,0.479,7.035C27.276,19.251,27.419,22.984,26.796,24.55z"/>
	</g>
</g>
</svg>
