<?xml version="1.0" encoding="utf-8"?>
<!-- Generator: Adobe Illustrator 15.0.0, SVG Export Plug-In . SVG Version: 6.00 Build 0)  -->
<!DOCTYPE svg PUBLIC "-//W3C//DTD SVG 1.1//EN" "http://www.w3.org/Graphics/SVG/1.1/DTD/svg11.dtd">
<svg version="1.1" id="Layer_1" xmlns="http://www.w3.org/2000/svg" xmlns:xlink="http://www.w3.org/1999/xlink" x="0px" y="0px"
	 width="35px" height="35px" viewBox="0 0 35 35" enable-background="new 0 0 35 35" xml:space="preserve">
<g>
	<circle fill="#EF26C4" cx="20.04" cy="75.514" r="17.403"/>
	<g>
		<path fill="#FFFFFF" d="M20.031,69.281c-3.458,0-6.246,2.787-6.246,6.244s2.788,6.246,6.246,6.246
			c3.457,0,6.244-2.789,6.244-6.246S23.486,69.281,20.031,69.281z M20.031,79.586c-2.235,0-4.061-1.82-4.061-4.061
			c0-2.237,1.821-4.062,4.061-4.062c2.238,0,4.06,1.822,4.06,4.062C24.09,77.766,22.264,79.586,20.031,79.586z M27.986,69.025
			c0,0.81-0.652,1.455-1.455,1.455c-0.811,0-1.457-0.65-1.457-1.455s0.652-1.457,1.457-1.457
			C27.334,67.568,27.986,68.223,27.986,69.025z M32.123,70.505c-0.092-1.95-0.537-3.68-1.967-5.104
			c-1.426-1.424-3.152-1.867-5.105-1.967c-2.01-0.115-8.039-0.115-10.05,0c-1.945,0.092-3.674,0.539-5.104,1.963
			s-1.87,3.151-1.968,5.104c-0.114,2.013-0.114,8.039,0,10.05c0.092,1.951,0.539,3.682,1.968,5.104
			c1.429,1.424,3.152,1.869,5.104,1.969c2.011,0.113,8.04,0.113,10.05,0c1.951-0.094,3.68-0.538,5.105-1.969
			c1.424-1.424,1.869-3.151,1.967-5.104C32.236,78.538,32.236,72.516,32.123,70.505z M29.525,82.707
			c-0.424,1.064-1.246,1.886-2.314,2.314c-1.604,0.637-5.41,0.488-7.18,0.488c-1.772,0-5.583,0.143-7.181-0.488
			c-1.066-0.424-1.886-1.244-2.315-2.314c-0.637-1.604-0.489-5.408-0.489-7.182c0-1.771-0.142-5.58,0.489-7.18
			c0.423-1.064,1.244-1.886,2.315-2.313c1.603-0.636,5.407-0.488,7.181-0.488c1.771,0,5.58-0.144,7.18,0.488
			c1.064,0.424,1.885,1.243,2.314,2.313c0.635,1.604,0.49,5.407,0.49,7.18C30.016,77.299,30.162,81.109,29.525,82.707z"/>
	</g>
</g>
<g>
	<path fill="#EF26C4" d="M30.625,2.188H4.368c-1.203,0-2.181,0.991-2.181,2.208v26.209c0,1.217,0.978,2.208,2.181,2.208h26.257
		c1.203,0,2.188-0.991,2.188-2.208V4.396C32.812,3.179,31.828,2.188,30.625,2.188z M11.443,28.438H6.904V13.822h4.546v14.615H11.443
		z M9.174,11.826c-1.456,0-2.632-1.183-2.632-2.632s1.176-2.632,2.632-2.632c1.449,0,2.632,1.183,2.632,2.632
		C11.806,10.65,10.63,11.826,9.174,11.826z M28.458,28.438h-4.539v-7.109c0-1.695-0.034-3.876-2.358-3.876
		c-2.365,0-2.728,1.846-2.728,3.753v7.232h-4.539V13.822h4.354v1.996h0.062c0.608-1.148,2.092-2.358,4.3-2.358
		c4.594,0,5.448,3.028,5.448,6.966V28.438z"/>
</g>
</svg>
