<?xml version="1.0" encoding="utf-8"?>
<!-- Generator: Adobe Illustrator 15.0.0, SVG Export Plug-In . SVG Version: 6.00 Build 0)  -->
<!DOCTYPE svg PUBLIC "-//W3C//DTD SVG 1.1//EN" "http://www.w3.org/Graphics/SVG/1.1/DTD/svg11.dtd">
<svg version="1.1" id="Layer_1" xmlns="http://www.w3.org/2000/svg" xmlns:xlink="http://www.w3.org/1999/xlink" x="0px" y="0px"
	 width="35px" height="35px" viewBox="0 0 35 35" enable-background="new 0 0 35 35" xml:space="preserve">
<g>
	<circle fill="#EF26C4" cx="17.48" cy="17.48" r="17.166"/>
	<g>
		<path fill="#FFFFFF" d="M26.393,8.986H7.481c-1.206,0-2.183,0.977-2.183,2.183v13.092c0,1.206,0.977,2.183,2.183,2.183h18.91
			c1.205,0,2.183-0.977,2.183-2.183V11.168C28.575,9.963,27.599,8.986,26.393,8.986z M26.393,11.168v1.855
			c-1.019,0.83-2.644,2.12-6.117,4.84c-0.767,0.604-2.283,2.05-3.338,2.032c-1.055,0.018-2.571-1.429-3.337-2.032
			c-3.474-2.72-5.099-4.01-6.118-4.84v-1.855H26.393z M7.481,24.261v-8.437c1.042,0.829,2.518,1.994,4.77,3.756
			c0.994,0.782,2.734,2.507,4.685,2.498c1.942,0.012,3.661-1.69,4.685-2.497c2.252-1.763,3.729-2.928,4.771-3.757v8.438
			L7.481,24.261L7.481,24.261z"/>
	</g>
</g>
</svg>
