<?xml version="1.0" encoding="utf-8"?>
<!-- Generator: Adobe Illustrator 15.0.0, SVG Export Plug-In . SVG Version: 6.00 Build 0)  -->
<!DOCTYPE svg PUBLIC "-//W3C//DTD SVG 1.1//EN" "http://www.w3.org/Graphics/SVG/1.1/DTD/svg11.dtd">
<svg version="1.1" id="Layer_1" xmlns="http://www.w3.org/2000/svg" xmlns:xlink="http://www.w3.org/1999/xlink" x="0px" y="0px"
	 width="35px" height="35px" viewBox="0 0 35 35" enable-background="new 0 0 35 35" xml:space="preserve">
<g>
	<circle fill="#EF26C4" cx="17.5" cy="17.5" r="16.966"/>
	<g>
		<path fill="#FFFFFF" d="M14.207,30.287V18.75h-3.864v-4.584h3.864v-3.61c0-3.924,2.398-6.061,5.899-6.061
			c1.678,0,3.117,0.126,3.537,0.182v4.1h-2.428c-1.904,0-2.273,0.907-2.273,2.232v3.159h4.299l-0.59,4.584h-3.707v11.535"/>
	</g>
</g>
<g>
	<circle fill="#EF26C4" cx="20.04" cy="75.514" r="17.403"/>
	<g>
		<path fill="#FFFFFF" d="M20.031,69.281c-3.458,0-6.246,2.787-6.246,6.244s2.788,6.246,6.246,6.246
			c3.457,0,6.244-2.789,6.244-6.246S23.486,69.281,20.031,69.281z M20.031,79.586c-2.235,0-4.061-1.82-4.061-4.061
			c0-2.237,1.821-4.061,4.061-4.061c2.238,0,4.06,1.822,4.06,4.061C24.09,77.766,22.264,79.586,20.031,79.586z M27.986,69.025
			c0,0.81-0.652,1.455-1.455,1.455c-0.811,0-1.457-0.65-1.457-1.455s0.652-1.457,1.457-1.457
			C27.334,67.568,27.986,68.223,27.986,69.025z M32.123,70.505c-0.092-1.95-0.537-3.68-1.967-5.104
			c-1.426-1.424-3.152-1.868-5.105-1.967c-2.01-0.115-8.039-0.115-10.05,0c-1.945,0.092-3.674,0.539-5.104,1.963
			s-1.87,3.151-1.968,5.104c-0.114,2.012-0.114,8.039,0,10.05c0.092,1.951,0.539,3.681,1.968,5.104
			c1.429,1.423,3.152,1.869,5.104,1.968c2.011,0.114,8.04,0.114,10.05,0c1.951-0.093,3.68-0.538,5.105-1.968
			c1.424-1.424,1.869-3.152,1.967-5.104C32.236,78.538,32.236,72.516,32.123,70.505z M29.525,82.707
			c-0.424,1.064-1.246,1.886-2.314,2.314c-1.604,0.637-5.41,0.489-7.18,0.489c-1.772,0-5.583,0.142-7.181-0.489
			c-1.066-0.424-1.886-1.244-2.315-2.314c-0.637-1.604-0.489-5.408-0.489-7.182c0-1.771-0.142-5.58,0.489-7.18
			c0.423-1.064,1.244-1.885,2.315-2.313c1.603-0.636,5.407-0.488,7.181-0.488c1.771,0,5.58-0.144,7.18,0.488
			c1.064,0.424,1.885,1.243,2.314,2.313c0.635,1.604,0.49,5.408,0.49,7.18C30.016,77.299,30.162,81.109,29.525,82.707z"/>
	</g>
</g>
</svg>
